<?xml version="1.0" encoding="UTF-8"?>
<svg xmlns="http://www.w3.org/2000/svg" xmlns:xlink="http://www.w3.org/1999/xlink" width="540pt" height="180pt" viewBox="130 308 540 182">
<path fill-rule="nonzero" fill="rgb(16.899109%, 27.099609%, 74.899292%)" fill-opacity="1" d="M 463.800781 405.785156 C 462.257812 394.511719 457.210938 380.265625 443.214844 368.242188 C 424.636719 352.285156 397.53125 346.066406 371.359375 351.476562 C 359.679688 330.84375 336.824219 316.773438 310.363281 314.289062 C 282.914062 311.703125 255.8125 322.296875 239.546875 341.542969 C 221.03125 333.042969 198.375 334.144531 181.425781 344.777344 C 168.929688 352.617188 161.203125 364.699219 159.285156 377.628906 L 172.980469 377.628906 C 174.773438 369.273438 180.175781 361.570312 188.632812 356.265625 C 203.066406 347.210938 222.90625 347.105469 238 356.011719 L 243.386719 359.191406 L 246.988281 354.070312 C 259.863281 335.765625 284.234375 325.445312 309.089844 327.785156 C 332.828125 330.015625 352.941406 343.171875 361.582031 362.117188 L 363.964844 367.347656 L 369.515625 365.847656 C 392.675781 359.597656 418.132812 364.574219 434.378906 378.53125 C 444.542969 387.261719 448.644531 397.421875 450.132812 405.785156 Z M 463.800781 405.785156 "/>
<path fill-rule="nonzero" fill="rgb(6.298828%, 9.399414%, 34.098816%)" fill-opacity="1" d="M 221.953125 384.800781 C 221.953125 381.722656 220.039062 379.8125 216.964844 379.8125 L 199.496094 379.8125 L 199.496094 391.222656 L 207.777344 391.222656 L 207.777344 451.050781 L 199.382812 451.050781 L 199.382812 461.796875 L 230.34375 461.796875 L 230.34375 451.050781 L 221.953125 451.050781 Z M 221.953125 384.800781 "/>
<path fill-rule="nonzero" fill="rgb(6.298828%, 9.399414%, 34.098816%)" fill-opacity="1" d="M 284.210938 432.625 C 284.210938 443.785156 278.207031 450.71875 268.542969 450.71875 C 258.742188 450.71875 252.65625 443.785156 252.65625 432.625 C 252.65625 421.460938 258.742188 414.527344 268.542969 414.527344 C 278.207031 414.527344 284.210938 421.460938 284.210938 432.625 M 268.542969 402.34375 C 250.433594 402.34375 238.265625 414.511719 238.265625 432.625 C 238.265625 450.734375 250.433594 462.902344 268.542969 462.902344 C 286.589844 462.902344 298.714844 450.734375 298.714844 432.625 C 298.714844 414.511719 286.589844 402.34375 268.542969 402.34375 "/>
<path fill-rule="nonzero" fill="rgb(6.298828%, 9.399414%, 34.098816%)" fill-opacity="1" d="M 368.101562 450.050781 C 367.324219 450.398438 366.457031 450.71875 365.402344 450.71875 C 363.800781 450.71875 362.988281 449.71875 362.988281 447.753906 L 362.988281 408.433594 C 362.988281 405.359375 361.078125 403.449219 358 403.449219 L 340.089844 403.449219 L 340.089844 414.085938 L 348.707031 414.085938 L 348.707031 433.726562 C 348.707031 443.136719 341.542969 450.164062 335.140625 450.164062 C 326.601562 450.164062 325.328125 441.527344 325.328125 436.378906 L 325.328125 408.433594 C 325.328125 405.359375 323.375 403.449219 320.230469 403.449219 L 302.871094 403.449219 L 302.871094 414.085938 L 311.042969 414.085938 L 311.042969 438.257812 C 311.042969 453.921875 318.78125 462.902344 332.265625 462.902344 C 339.976562 462.902344 346.90625 459.242188 350.835938 453.328125 C 350.835938 453.335938 350.839844 453.347656 350.839844 453.355469 C 352.230469 458.917969 356.726562 462.242188 362.859375 462.242188 C 365.695312 462.242188 368.792969 461.527344 370.753906 460.425781 L 371.527344 459.992188 L 369.523438 449.421875 Z M 368.101562 450.050781 "/>
<path fill-rule="nonzero" fill="rgb(6.298828%, 9.399414%, 34.098816%)" fill-opacity="1" d="M 410.460938 414.636719 C 418.882812 414.636719 423.917969 421.28125 423.917969 432.402344 C 423.917969 443.972656 418.367188 450.605469 408.691406 450.605469 C 403.488281 450.605469 399.410156 449.078125 396.5625 446.0625 L 396.5625 433.617188 C 396.5625 421.734375 401.757812 414.636719 410.460938 414.636719 M 414.113281 402.453125 C 405.621094 402.371094 399.363281 405.25 395.339844 411.035156 C 395.339844 411 395.34375 410.960938 395.34375 410.921875 L 395.457031 408.492188 C 395.519531 407.035156 395.101562 405.789062 394.238281 404.886719 C 393.339844 403.945312 392.035156 403.449219 390.46875 403.449219 L 374.214844 403.449219 L 374.214844 414.859375 L 382.277344 414.859375 L 382.277344 475.457031 L 374.328125 475.457031 L 374.328125 486.097656 L 405.066406 486.097656 L 405.066406 475.457031 L 396.121094 475.457031 L 396.121094 458.59375 C 399.820312 461.292969 404.789062 462.902344 409.683594 462.902344 C 427.007812 462.902344 438.199219 450.929688 438.199219 432.402344 C 438.199219 414.488281 428.515625 402.453125 414.113281 402.453125 "/>
<path fill-rule="nonzero" fill="rgb(6.298828%, 9.399414%, 34.098816%)" fill-opacity="1" d="M 501.3125 451.949219 C 490.488281 451.949219 484.191406 444.109375 484.191406 432.625 C 484.191406 421.136719 490.488281 413.296875 501.3125 413.296875 C 511.914062 413.296875 518.210938 421.136719 518.210938 432.625 C 518.210938 444.109375 511.914062 451.949219 501.3125 451.949219 M 501.3125 403.578125 C 483.859375 403.578125 472.265625 415.28125 472.265625 432.625 C 472.265625 449.851562 483.859375 461.671875 501.3125 461.671875 C 518.761719 461.671875 530.25 449.851562 530.25 432.625 C 530.25 415.28125 518.761719 403.578125 501.3125 403.578125 "/>
<path fill-rule="nonzero" fill="rgb(6.298828%, 9.399414%, 34.098816%)" fill-opacity="1" d="M 599.273438 427.320312 C 599.273438 412.851562 591.433594 403.578125 578.84375 403.578125 C 567.578125 403.578125 561.28125 409.539062 558.078125 417.160156 L 557.746094 417.160156 C 557.96875 415.835938 558.078125 413.738281 558.078125 411.859375 L 558.078125 408.4375 C 558.078125 406.007812 556.753906 404.679688 554.324219 404.679688 L 539.300781 404.679688 L 539.300781 413.40625 L 547.476562 413.40625 L 547.476562 452.28125 L 539.300781 452.28125 L 539.300781 460.566406 L 567.578125 460.566406 L 567.578125 452.28125 L 559.183594 452.28125 L 559.183594 435.605469 C 559.183594 423.125 565.257812 413.847656 574.644531 413.847656 C 583.261719 413.847656 587.566406 420.03125 587.566406 429.308594 L 587.566406 460.566406 L 607.335938 460.566406 L 607.335938 452.28125 L 599.273438 452.28125 Z M 599.273438 427.320312 "/>
<path fill-rule="nonzero" fill="rgb(6.298828%, 9.399414%, 34.098816%)" fill-opacity="1" d="M 626.109375 427.433594 C 627.765625 418.707031 633.398438 412.855469 641.238281 412.855469 C 650.628906 412.855469 654.496094 420.363281 654.9375 427.433594 Z M 640.796875 403.6875 C 624.785156 403.6875 613.960938 416.054688 613.960938 432.625 C 613.960938 449.523438 625.445312 461.671875 642.675781 461.671875 C 653.71875 461.671875 662.886719 456.703125 665.871094 448.75 L 657.253906 444.21875 C 654.9375 448.75 649.523438 452.0625 642.675781 452.0625 C 632.515625 452.0625 626.660156 444.882812 625.78125 435.273438 L 665.980469 435.273438 C 666.644531 415.945312 658.691406 403.578125 640.796875 403.6875 "/>
<path fill-rule="nonzero" fill="rgb(16.899109%, 27.099609%, 74.899292%)" fill-opacity="1" d="M 463.800781 450.398438 C 463.800781 454.21875 460.703125 457.316406 456.882812 457.316406 C 453.0625 457.316406 449.964844 454.21875 449.964844 450.398438 C 449.964844 446.578125 453.0625 443.480469 456.882812 443.480469 C 460.703125 443.480469 463.800781 446.578125 463.800781 450.398438 "/>
<path fill-rule="nonzero" fill="rgb(6.298828%, 9.399414%, 34.098816%)" fill-opacity="1" d="M 178.691406 443.449219 L 178.429688 443.960938 C 175.953125 448.796875 170.375 451.921875 164.222656 451.921875 C 153.855469 451.921875 147.664062 444.570312 147.664062 432.25 C 147.664062 422.742188 151.953125 412.578125 163.992188 412.578125 C 168.636719 412.578125 173.023438 414.230469 175.25 416.796875 L 175.25 424.335938 L 187.550781 424.335938 L 187.550781 410.457031 L 187.390625 410.285156 C 182.125 404.417969 174.074219 401.316406 164.109375 401.316406 C 143.410156 401.316406 133.980469 417.351562 133.980469 432.25 C 133.980469 451.332031 145.570312 463.183594 164.222656 463.183594 C 176.675781 463.183594 186.070312 457.730469 189.355469 448.597656 L 189.554688 448.050781 Z M 178.691406 443.449219 "/>
</svg>
